<?xml version="1.0" encoding="iso-8859-1"?>
<!-- Generator: Adobe Illustrator 19.0.0, SVG Export Plug-In . SVG Version: 6.00 Build 0)  -->
<svg version="1.1" id="Layer_1" xmlns="http://www.w3.org/2000/svg" xmlns:xlink="http://www.w3.org/1999/xlink" x="0px" y="0px"
	 viewBox="0 0 512.001 512.001" style="enable-background:new 0 0 512.001 512.001;" xml:space="preserve">
<g>
	<g>
		<path d="M323.544,172.094v-61.98h2.723c7.84,0,14.195-6.357,14.195-14.195s-6.355-14.195-14.195-14.195h-16.15
			c-0.255-0.014-0.51-0.038-0.768-0.038h-1.419v-67.49C307.929,6.357,301.574,0,293.734,0h-75.468
			c-7.84,0-14.195,6.357-14.195,14.195v67.503c-0.176,0.003-0.348,0.017-0.522,0.027h-17.813c-7.84,0-14.195,6.357-14.195,14.195
			s6.355,14.195,14.195,14.195h4.388v61.99c-29.967,12.34-56.784,33.204-76.297,59.531c-22.644,30.555-34.613,66.502-34.613,103.956
			c0,97.272,79.001,176.409,176.107,176.409c97.858,0,177.469-79.137,177.469-176.409
			C432.789,263.51,389.292,199.056,323.544,172.094z M232.461,28.39h47.078v53.295h-47.078V28.39z M255.319,483.61
			c-81.451,0-147.717-66.4-147.717-148.019c0-22.252,5.377-43.925,14.993-63.536h163.563c7.84,0,14.195-6.357,14.195-14.195
			c0-7.839-6.355-14.195-14.195-14.195H140.652c17.494-21.791,40.994-38.956,68.278-48.33c5.733-1.97,9.582-7.363,9.582-13.424
			v-71.797h76.64v71.797c0,6.063,3.85,11.454,9.582,13.424c59.612,20.483,99.662,76.848,99.662,140.256
			C404.399,417.21,337.521,483.61,255.319,483.61z"/>
	</g>
</g>
<g>
	<g>
		<path d="M350.04,353.468c-1.567-32.738-25.888-58.381-55.365-58.381c-16.204,0-29.818,7.262-38.588,13.573
			c-8.692-6.327-22.249-13.573-38.764-13.573c-29.477,0-53.796,25.643-55.366,58.381c-0.925,19.369,5.8,33.191,10.939,41.904
			c12.345,20.928,65.009,55.802,75.441,62.58c2.352,1.527,5.044,2.291,7.735,2.291c2.69,0,5.38-0.764,7.731-2.29
			c2.924-1.899,9.177-6.012,16.933-11.413c19.819-13.803,49.447-36.018,58.372-51.179v-0.001
			C344.244,386.636,350.966,372.799,350.04,353.468z M314.642,380.956c-5.955,10.12-35.553,32.515-58.569,48.062
			c-20.935-14.135-47.291-33.888-56.455-44.937c-0.948-1.143-1.712-2.193-2.267-3.134c-2.014-3.414-3.569-6.646-4.701-9.839
			c-1.889-5.32-2.608-10.53-2.332-16.283c0.491-10.263,4.963-19.39,11.458-25.112c4.444-3.915,9.836-6.236,15.549-6.236
			c15.765,0,28.005,13.206,28.066,13.271c2.646,2.977,6.395,4.731,10.377,4.789c3.983,0.097,7.779-1.532,10.511-4.43
			c0.131-0.136,13.299-13.63,28.396-13.63c14.065,0,26.18,14.063,27.008,31.347C322.123,364.009,320.016,371.825,314.642,380.956z"
			/>
	</g>
</g>
<g>
	<g>
		<path d="M342.433,255.092c-0.185-0.909-0.454-1.803-0.809-2.669c-0.355-0.852-0.795-1.675-1.306-2.442
			c-0.525-0.781-1.107-1.505-1.774-2.158c-0.653-0.653-1.377-1.251-2.158-1.76c-0.766-0.511-1.59-0.951-2.442-1.306
			s-1.746-0.625-2.654-0.809c-1.831-0.369-3.719-0.369-5.55,0c-0.909,0.185-1.803,0.454-2.654,0.809s-1.689,0.795-2.456,1.306
			c-0.781,0.51-1.505,1.107-2.158,1.76c-0.653,0.653-1.249,1.377-1.76,2.158c-0.511,0.766-0.951,1.59-1.306,2.442
			c-0.355,0.866-0.625,1.76-0.809,2.669c-0.185,0.91-0.284,1.847-0.284,2.768c0,0.923,0.099,1.861,0.284,2.768
			c0.185,0.907,0.454,1.803,0.809,2.654c0.355,0.866,0.795,1.688,1.306,2.454c0.511,0.782,1.107,1.506,1.76,2.159
			c0.653,0.653,1.377,1.249,2.158,1.76c0.767,0.51,1.604,0.951,2.456,1.306c0.852,0.355,1.746,0.639,2.654,0.823
			c0.908,0.185,1.845,0.268,2.768,0.268c0.937,0,1.86-0.085,2.782-0.268c0.909-0.185,1.803-0.468,2.654-0.823
			c0.852-0.355,1.675-0.796,2.442-1.306c0.781-0.511,1.505-1.107,2.158-1.76c0.667-0.653,1.249-1.377,1.774-2.159
			c0.511-0.767,0.951-1.588,1.306-2.454c0.355-0.852,0.625-1.746,0.809-2.654c0.185-0.908,0.27-1.845,0.27-2.768
			C342.703,256.939,342.618,256.001,342.433,255.092z"/>
	</g>
</g>
<g>
</g>
<g>
</g>
<g>
</g>
<g>
</g>
<g>
</g>
<g>
</g>
<g>
</g>
<g>
</g>
<g>
</g>
<g>
</g>
<g>
</g>
<g>
</g>
<g>
</g>
<g>
</g>
<g>
</g>
</svg>
